# xmcd
#
# Track frame offsets:
#	150
#	10321
#	28663
#	44704
#	57581
#	70167
#	81932
#	99216
#	111807
#	126690
#	142072
#	158141
#	169409
#	180738
#
# Disc length: 2626 seconds
#
# Revision: 0
# Processed by: cddbd v1.5.2PL0 Copyright (c) Steve Scherf et al.
# Submitted via: audiograbber 1.83.01
#
DISCID=ce0a400e
DTITLE=Various Artist - Kult³ Volume 2  [CD 1]
DYEAR=2001
DGENRE=Deutsche Schlager
TTITLE0=Conny Francis - Die Liebe ist ein seltsames Spiel
TTITLE1=Heino - Blau blüht der Enzian
TTITLE2=Karel Gott - Fang das Licht
TTITLE3=Caterina Valente - Ganz Paris träumt von der Liebe
TTITLE4=Freddy Breck - Rote Rosen
TTITLE5=Ivo Robic - Morgen
TTITLE6=Freddy vQuinn - La Paloma
TTITLE7=Roy Black - Dein schönstes Geschenk
TTITLE8=Bata Illic - Schwarze Madonna
TTITLE9=Vicky Leandros - Die Bouzouki klang durch die Sommernacht
TTITLE10=Hazy Osterwald Sextett - Kriminal-Tango
TTITLE11=Lolita - Der weiße Mond von Maratonga
TTITLE12=Peter Kraus - Sugar Baby
TTITLE13=Daliah Lavi - Willst Du mit mir gehen
EXTD=
EXTT0=
EXTT1=
EXTT2=
EXTT3=
EXTT4=
EXTT5=
EXTT6=
EXTT7=
EXTT8=
EXTT9=
EXTT10=
EXTT11=
EXTT12=
EXTT13=
PLAYORDER=
